<svg width="24" height="24" viewBox="0 0 24 24" fill="none" xmlns="http://www.w3.org/2000/svg">
<circle cx="12" cy="12" r="11" stroke="#6C6C6C" stroke-width="2"/>
<path d="M11.5642 9.58C11.5642 9.58 11.4776 9.58 11.3042 9.58C11.1309 9.56667 10.9242 9.52667 10.6842 9.46C10.4576 9.38 10.2509 9.24 10.0642 9.04C9.87755 8.84 9.77755 8.54 9.76422 8.14C9.75089 7.74 9.81089 7.44667 9.94422 7.26C10.0776 7.06 10.2442 6.92667 10.4442 6.86C10.6442 6.78 10.8376 6.74 11.0242 6.74C11.2109 6.72667 11.3442 6.71333 11.4242 6.7C11.5042 6.68667 11.6376 6.7 11.8242 6.74C12.0109 6.76667 12.2042 6.84 12.4042 6.96C12.6042 7.06667 12.7709 7.23333 12.9042 7.46C13.0376 7.67333 13.0909 7.96 13.0642 8.32C13.0376 8.66667 12.9442 8.93333 12.7842 9.12C12.6376 9.29333 12.4642 9.41333 12.2642 9.48C12.0776 9.53333 11.9109 9.56667 11.7642 9.58C11.6309 9.58 11.5642 9.58 11.5642 9.58ZM10.8642 16.76L10.3842 12.2C10.3842 12.2 10.3509 12.1333 10.2842 12C10.2309 11.8533 10.1909 11.7533 10.1642 11.7C10.1509 11.66 10.1242 11.58 10.0842 11.46C10.0576 11.3267 10.0909 11.1867 10.1842 11.04C10.2909 10.8933 10.5176 10.7867 10.8642 10.72C11.2242 10.6533 11.5976 10.6333 11.9842 10.66C12.3709 10.6867 12.7109 10.8067 13.0042 11.02C13.3109 11.22 13.4976 11.5733 13.5642 12.08C13.6176 12.4533 13.6709 12.9 13.7242 13.42C13.7776 13.9267 13.8242 14.4267 13.8642 14.92C13.9176 15.4 13.9576 15.8067 13.9842 16.14C14.0242 16.46 14.0442 16.62 14.0442 16.62C14.0442 16.62 14.0509 16.6933 14.0642 16.84C14.0776 16.9733 14.0576 17.1333 14.0042 17.32C13.9509 17.4933 13.8176 17.6533 13.6042 17.8C13.4042 17.9333 13.0776 18 12.6242 18C12.1709 18 11.8242 17.94 11.5842 17.82C11.3442 17.6867 11.1709 17.54 11.0642 17.38C10.9709 17.22 10.9109 17.08 10.8842 16.96C10.8709 16.8267 10.8642 16.76 10.8642 16.76Z" fill="#6C6C6C"/>
</svg>
