<svg width="120" height="80" viewBox="0 0 120 80" fill="none" xmlns="http://www.w3.org/2000/svg">
<g filter="url(#filter0_g_2166_1139)">
<path d="M40.4208 21.0453L16.4703 34.7312C16.309 34.8234 16.3496 35.0666 16.5321 35.1014L36.9364 38.9879C36.9777 38.9958 37.0205 38.9904 37.0586 38.9726L60.0558 28.2079C60.2182 28.1319 60.2063 27.8972 60.0371 27.838L40.5861 21.0301C40.5314 21.011 40.4711 21.0165 40.4208 21.0453Z" fill="url(#paint0_linear_2166_1139)" stroke="#B5B5B5"/>
<path d="M35.0501 57.5237L36.9882 39.1123C36.9955 39.0426 37.0388 38.9818 37.1023 38.9521L59.9791 28.2438C60.1508 28.1634 60.3276 28.3448 60.2428 28.5144L52.5196 43.9607C52.5067 43.9866 52.4883 44.0094 52.4657 44.0274L35.374 57.7008C35.2353 57.8118 35.0315 57.7004 35.0501 57.5237Z" fill="url(#paint1_linear_2166_1139)" stroke="#B5B5B5"/>
<path d="M52.5359 43.9282L60.3611 28.2778C60.4261 28.1477 60.6039 28.1284 60.6954 28.2414L68.9278 38.4109C68.9725 38.4661 68.9846 38.5408 68.9595 38.6073L59.2058 64.4546C59.1386 64.6328 58.8839 64.625 58.8276 64.4431L52.5238 44.0767C52.5085 44.0275 52.5129 43.9743 52.5359 43.9282Z" fill="url(#paint2_linear_2166_1139)" stroke="#B5B5B5"/>
<path d="M69.4734 38.9675L60.8128 28.3824C60.699 28.2433 60.8122 28.0363 60.9907 28.0571L81.9027 30.4887C81.9641 30.4958 82.0187 30.531 82.0507 30.5839L94.6371 51.3997C94.7412 51.572 94.5544 51.7728 94.3751 51.6814L69.5374 39.0191C69.5127 39.0065 69.491 38.9889 69.4734 38.9675Z" fill="url(#paint3_linear_2166_1139)" stroke="#B5B5B5"/>
<path d="M79.4518 15.5317L60.9594 27.6978C60.8034 27.8004 60.8607 28.0419 61.0462 28.0635L81.9241 30.4912C81.973 30.4969 82.0222 30.4843 82.0624 30.456L103.465 15.3768C103.626 15.2632 103.543 15.0093 103.346 15.0133L79.5577 15.4988C79.52 15.4996 79.4833 15.511 79.4518 15.5317Z" fill="url(#paint4_linear_2166_1139)" stroke="#B5B5B5"/>
</g>
<g filter="url(#filter1_d_2166_1139)">
<path d="M31.16 31.288C31.16 30.5413 31.1173 29.944 31.032 29.496C30.968 29.0267 30.8293 28.664 30.616 28.408C30.4027 28.1307 30.0933 27.9493 29.688 27.864C29.304 27.7573 28.7813 27.6827 28.12 27.64V26.36H38.904V27.64C38.2427 27.6613 37.7093 27.7253 37.304 27.832C36.8987 27.9387 36.5893 28.1307 36.376 28.408C36.1627 28.6853 36.024 29.0693 35.96 29.56C35.896 30.0507 35.864 30.7013 35.864 31.512V51.064C35.864 53.752 35.1813 55.8 33.816 57.208C32.4507 58.616 30.4133 59.32 27.704 59.32C25.7627 59.32 24.2693 58.9893 23.224 58.328C22.1573 57.6667 21.624 56.824 21.624 55.8C21.624 55.1813 21.8267 54.7013 22.232 54.36C22.616 54.04 23.096 53.88 23.672 53.88C24.1627 53.88 24.5573 54.008 24.856 54.264C25.1333 54.52 25.4853 55 25.912 55.704C26.3387 56.408 26.7227 56.8773 27.064 57.112C27.4053 57.3467 27.8213 57.464 28.312 57.464C29.2293 57.464 29.9333 56.9627 30.424 55.96C30.9147 54.9573 31.16 53.5493 31.16 51.736V31.288ZM67.7113 33.4H66.3353C66.2713 32.3547 66.1113 31.4907 65.8553 30.808C65.6206 30.104 65.2793 29.5493 64.8313 29.144C64.3833 28.7173 63.8393 28.4293 63.1993 28.28C62.5593 28.1093 61.8126 28.024 60.9593 28.024C60.1273 28.024 59.4553 28.0453 58.9433 28.088C58.4526 28.1093 58.0686 28.1627 57.7913 28.248C57.5353 28.312 57.3646 28.408 57.2793 28.536C57.1939 28.664 57.1513 28.824 57.1513 29.016V45.784C57.1513 46.4667 57.1939 47.0533 57.2793 47.544C57.3859 48.0347 57.5886 48.44 57.8873 48.76C58.1859 49.0587 58.6233 49.2933 59.1993 49.464C59.7753 49.6133 60.5326 49.6987 61.4713 49.72V51H48.0633V49.72C49.0233 49.6987 49.7913 49.6133 50.3673 49.464C50.9433 49.2933 51.3806 49.0587 51.6793 48.76C51.9993 48.44 52.2019 48.0347 52.2873 47.544C52.3939 47.0533 52.4473 46.4667 52.4473 45.784V29.016C52.4473 28.824 52.4046 28.664 52.3193 28.536C52.2553 28.408 52.1059 28.312 51.8713 28.248C51.6366 28.1627 51.2953 28.1093 50.8473 28.088C50.4206 28.0453 49.8553 28.024 49.1513 28.024C48.3833 28.024 47.6473 28.0667 46.9433 28.152C46.2393 28.216 45.6206 28.4293 45.0873 28.792C44.5539 29.1333 44.1166 29.6667 43.7753 30.392C43.4553 31.096 43.2846 32.0987 43.2633 33.4H42.0153L42.3353 26.36H67.3913L67.7113 33.4ZM92.1 33.208C92.1 35.512 91.204 37.272 89.412 38.488C87.62 39.6827 85.0173 40.28 81.604 40.28H78.884V45.912C78.884 46.7227 78.9373 47.384 79.044 47.896C79.1507 48.3867 79.3747 48.7707 79.716 49.048C80.0573 49.3253 80.5267 49.5067 81.124 49.592C81.7213 49.6773 82.5213 49.72 83.524 49.72V51H70.82V49.72C71.524 49.6987 72.1 49.6347 72.548 49.528C72.996 49.4213 73.3373 49.24 73.572 48.984C73.8067 48.728 73.9667 48.3653 74.052 47.896C74.1373 47.4267 74.18 46.8187 74.18 46.072V31.288C74.18 30.5413 74.1373 29.944 74.052 29.496C73.988 29.0267 73.8493 28.664 73.636 28.408C73.4227 28.1307 73.1133 27.9493 72.708 27.864C72.324 27.7573 71.812 27.6827 71.172 27.64V26.36H82.244C85.4867 26.36 87.94 26.936 89.604 28.088C91.268 29.24 92.1 30.9467 92.1 33.208ZM78.884 38.36H80.964C83.0333 38.36 84.548 37.944 85.508 37.112C86.468 36.28 86.948 34.968 86.948 33.176C86.948 31.576 86.5427 30.3387 85.732 29.464C84.9213 28.5893 83.652 28.152 81.924 28.152H79.46C79.076 28.152 78.884 28.3333 78.884 28.696V38.36Z" fill="white"/>
<path d="M31.032 29.496L30.0412 29.6311L30.0447 29.6572L30.0497 29.6831L31.032 29.496ZM30.616 28.408L29.8234 29.0177L29.8353 29.0332L29.8478 29.0482L30.616 28.408ZM29.688 27.864L29.4204 28.8275L29.4509 28.836L29.482 28.8425L29.688 27.864ZM28.12 27.64H27.12V28.5776L28.0556 28.6379L28.12 27.64ZM28.12 26.36V25.36H27.12V26.36H28.12ZM38.904 26.36H39.904V25.36H38.904V26.36ZM38.904 27.64L38.9362 28.6395L39.904 28.6083V27.64H38.904ZM37.304 27.832L37.5585 28.7991L37.5585 28.7991L37.304 27.832ZM35.96 29.56L34.9684 29.4307L34.9684 29.4307L35.96 29.56ZM33.816 57.208L34.5339 57.9041L33.816 57.208ZM23.224 58.328L23.7587 57.4829L23.7509 57.4781L23.224 58.328ZM22.232 54.36L21.5918 53.5918L21.5879 53.5951L22.232 54.36ZM24.856 54.264L25.5343 53.5292L25.5208 53.5167L25.5068 53.5047L24.856 54.264ZM25.912 55.704L26.7672 55.1857L26.7672 55.1857L25.912 55.704ZM27.064 57.112L26.4975 57.936L26.4975 57.936L27.064 57.112ZM30.424 55.96L29.5258 55.5204L29.5258 55.5204L30.424 55.96ZM31.16 31.288H32.16C32.16 30.5128 32.1164 29.8449 32.0143 29.3089L31.032 29.496L30.0497 29.6831C30.1182 30.0431 30.16 30.5699 30.16 31.288H31.16ZM31.032 29.496L32.0228 29.3609C31.9436 28.7802 31.7581 28.2165 31.3842 27.7678L30.616 28.408L29.8478 29.0482C29.9005 29.1115 29.9924 29.2731 30.0412 29.6311L31.032 29.496ZM30.616 28.408L31.4086 27.7983C31.0242 27.2985 30.4875 27.0104 29.894 26.8854L29.688 27.864L29.482 28.8425C29.6991 28.8883 29.7812 28.9628 29.8234 29.0177L30.616 28.408ZM29.688 27.864L29.9556 26.9005C29.4761 26.7673 28.8757 26.6867 28.1844 26.6421L28.12 27.64L28.0556 28.6379C28.687 28.6787 29.1319 28.7474 29.4204 28.8275L29.688 27.864ZM28.12 27.64H29.12V26.36H28.12H27.12V27.64H28.12ZM28.12 26.36V27.36H38.904V26.36V25.36H28.12V26.36ZM38.904 26.36H37.904V27.64H38.904H39.904V26.36H38.904ZM38.904 27.64L38.8718 26.6405C38.1732 26.6631 37.5567 26.7315 37.0495 26.8649L37.304 27.832L37.5585 28.7991C37.862 28.7192 38.3122 28.6596 38.9362 28.6395L38.904 27.64ZM37.304 27.832L37.0495 26.8649C36.4739 27.0164 35.9568 27.3128 35.5834 27.7983L36.376 28.408L37.1686 29.0177C37.2219 28.9485 37.3234 28.8609 37.5585 28.7991L37.304 27.832ZM36.376 28.408L35.5834 27.7983C35.227 28.2616 35.0463 28.8337 34.9684 29.4307L35.96 29.56L36.9516 29.6893C37.0017 29.3049 37.0983 29.1091 37.1686 29.0177L36.376 28.408ZM35.96 29.56L34.9684 29.4307C34.8964 29.9825 34.864 30.6816 34.864 31.512H35.864H36.864C36.864 30.7211 36.8956 30.1188 36.9516 29.6893L35.96 29.56ZM35.864 31.512H34.864V51.064H35.864H36.864V31.512H35.864ZM35.864 51.064H34.864C34.864 53.5902 34.2241 55.3506 33.0981 56.5119L33.816 57.208L34.5339 57.9041C36.1385 56.2494 36.864 53.9138 36.864 51.064H35.864ZM33.816 57.208L33.0981 56.5119C31.9838 57.6609 30.2485 58.32 27.704 58.32V59.32V60.32C30.5781 60.32 32.9175 59.5711 34.5339 57.9041L33.816 57.208ZM27.704 59.32V58.32C25.8531 58.32 24.5772 58.0008 23.7586 57.4829L23.224 58.328L22.6894 59.1731C23.9615 59.9779 25.6722 60.32 27.704 60.32V59.32ZM23.224 58.328L23.7509 57.4781C22.9016 56.9515 22.624 56.3963 22.624 55.8H21.624H20.624C20.624 57.2517 21.413 58.3818 22.6971 59.1779L23.224 58.328ZM21.624 55.8H22.624C22.624 55.4214 22.7353 55.2435 22.8761 55.1249L22.232 54.36L21.5879 53.5951C20.918 54.1591 20.624 54.9412 20.624 55.8H21.624ZM22.232 54.36L22.8722 55.1282C23.0496 54.9804 23.2923 54.88 23.672 54.88V53.88V52.88C22.8997 52.88 22.1824 53.0996 21.5918 53.5918L22.232 54.36ZM23.672 53.88V54.88C23.985 54.88 24.1293 54.9582 24.2052 55.0233L24.856 54.264L25.5068 53.5047C24.9854 53.0578 24.3404 52.88 23.672 52.88V53.88ZM24.856 54.264L24.1777 54.9988C24.344 55.1523 24.6354 55.5269 25.0568 56.2223L25.912 55.704L26.7672 55.1857C26.3353 54.4731 25.9226 53.8877 25.5343 53.5292L24.856 54.264ZM25.912 55.704L25.0568 56.2223C25.4985 56.9512 25.9728 57.5753 26.4975 57.936L27.064 57.112L27.6305 56.288C27.4725 56.1793 27.1788 55.8648 26.7672 55.1857L25.912 55.704ZM27.064 57.112L26.4975 57.936C27.0344 58.3052 27.6572 58.464 28.312 58.464V57.464V56.464C27.9855 56.464 27.7763 56.3881 27.6305 56.288L27.064 57.112ZM28.312 57.464V58.464C28.9651 58.464 29.576 58.2815 30.1081 57.9026C30.6295 57.5312 31.0245 57.008 31.3222 56.3996L30.424 55.96L29.5258 55.5204C29.3329 55.9146 29.1305 56.1434 28.9479 56.2734C28.776 56.3959 28.5763 56.464 28.312 56.464V57.464ZM30.424 55.96L31.3222 56.3996C31.909 55.2004 32.16 53.6175 32.16 51.736H31.16H30.16C30.16 53.4812 29.9203 54.7142 29.5258 55.5204L30.424 55.96ZM31.16 51.736H32.16V31.288H31.16H30.16V51.736H31.16ZM67.7113 33.4V34.4H68.7577L68.7102 33.3546L67.7113 33.4ZM66.3353 33.4L65.3371 33.4611L65.3946 34.4H66.3353V33.4ZM65.8553 30.808L64.9066 31.1242L64.9124 31.1418L64.9189 31.1591L65.8553 30.808ZM64.8313 29.144L64.1416 29.8681L64.1509 29.877L64.1603 29.8855L64.8313 29.144ZM63.1993 28.28L62.9416 29.2462L62.9567 29.2503L62.972 29.2538L63.1993 28.28ZM58.9433 28.088L58.9867 29.0871L59.0065 29.0862L59.0263 29.0845L58.9433 28.088ZM57.7913 28.248L58.0338 29.2181L58.0598 29.2116L58.0853 29.2038L57.7913 28.248ZM57.2793 47.544L56.294 47.7153L56.2976 47.736L56.3021 47.7564L57.2793 47.544ZM57.8873 48.76L57.1562 49.4423L57.168 49.4549L57.1801 49.4671L57.8873 48.76ZM59.1993 49.464L58.9152 50.4228L58.9316 50.4277L58.9483 50.432L59.1993 49.464ZM61.4713 49.72H62.4713V48.7425L61.494 48.7203L61.4713 49.72ZM61.4713 51V52H62.4713V51H61.4713ZM48.0633 51H47.0633V52H48.0633V51ZM48.0633 49.72L48.041 48.7202L47.0633 48.742V49.72H48.0633ZM50.3673 49.464L50.6182 50.432L50.6349 50.4277L50.6513 50.4228L50.3673 49.464ZM51.6793 48.76L50.9721 48.0529L50.9721 48.0529L51.6793 48.76ZM52.2873 47.544L51.3101 47.3316L51.3056 47.352L51.302 47.3727L52.2873 47.544ZM52.3193 28.536L51.4248 28.9832L51.4527 29.0389L51.4872 29.0907L52.3193 28.536ZM51.8713 28.248L51.5295 29.1878L51.5683 29.2019L51.6081 29.2128L51.8713 28.248ZM50.8473 28.088L50.7477 29.083L50.7737 29.0856L50.7997 29.0869L50.8473 28.088ZM46.9433 28.152L47.0338 29.1479L47.0487 29.1465L47.0636 29.1447L46.9433 28.152ZM45.0873 28.792L45.6263 29.6343L45.638 29.6268L45.6496 29.6189L45.0873 28.792ZM43.7753 30.392L42.8704 29.9662L42.8649 29.9782L43.7753 30.392ZM43.2633 33.4V34.4H44.247L44.2631 33.4164L43.2633 33.4ZM42.0153 33.4L41.0163 33.3546L40.9688 34.4H42.0153V33.4ZM42.3353 26.36V25.36H41.3797L41.3363 26.3146L42.3353 26.36ZM67.3913 26.36L68.3902 26.3146L68.3468 25.36H67.3913V26.36ZM67.7113 33.4V32.4H66.3353V33.4V34.4H67.7113V33.4ZM66.3353 33.4L67.3334 33.3389C67.2657 32.2337 67.0941 31.2635 66.7916 30.4569L65.8553 30.808L64.9189 31.1591C65.1285 31.7179 65.2768 32.4756 65.3371 33.4611L66.3353 33.4ZM65.8553 30.808L66.8039 30.4918C66.5272 29.6614 66.1039 28.9469 65.5022 28.4025L64.8313 29.144L64.1603 29.8855C64.4546 30.1518 64.714 30.5466 64.9066 31.1242L65.8553 30.808ZM64.8313 29.144L65.5209 28.4199C64.9357 27.8625 64.2289 27.4934 63.4265 27.3062L63.1993 28.28L62.972 29.2538C63.4496 29.3653 63.8308 29.5722 64.1416 29.8681L64.8313 29.144ZM63.1993 28.28L63.4569 27.3138C62.7128 27.1153 61.876 27.024 60.9593 27.024V28.024V29.024C61.7492 29.024 62.4057 29.1033 62.9416 29.2462L63.1993 28.28ZM60.9593 28.024V27.024C60.1142 27.024 59.4114 27.0455 58.8602 27.0915L58.9433 28.088L59.0263 29.0845C59.4991 29.0451 60.1403 29.024 60.9593 29.024V28.024ZM58.9433 28.088L58.8998 27.0889C58.3741 27.1118 57.8928 27.1705 57.4972 27.2922L57.7913 28.248L58.0853 29.2038C58.2444 29.1548 58.5311 29.1069 58.9867 29.0871L58.9433 28.088ZM57.7913 28.248L57.5487 27.2779C57.2104 27.3624 56.7403 27.5416 56.4472 27.9813L57.2793 28.536L58.1113 29.0907C58.046 29.1886 57.977 29.2308 57.9615 29.2396C57.9474 29.2475 57.9645 29.2355 58.0338 29.2181L57.7913 28.248ZM57.2793 28.536L56.4472 27.9813C56.228 28.3101 56.1513 28.6757 56.1513 29.016H57.1513H58.1513C58.1513 28.9935 58.1538 28.9935 58.1495 29.0097C58.1448 29.0273 58.1338 29.057 58.1113 29.0907L57.2793 28.536ZM57.1513 29.016H56.1513V45.784H57.1513H58.1513V29.016H57.1513ZM57.1513 45.784H56.1513C56.1513 46.5046 56.196 47.1517 56.294 47.7153L57.2793 47.544L58.2645 47.3727C58.1918 46.955 58.1513 46.4287 58.1513 45.784H57.1513ZM57.2793 47.544L56.3021 47.7564C56.4413 48.3967 56.7175 48.9723 57.1562 49.4423L57.8873 48.76L58.6183 48.0777C58.4597 47.9077 58.3306 47.6726 58.2564 47.3316L57.2793 47.544ZM57.8873 48.76L57.1801 49.4671C57.6359 49.9229 58.2428 50.2236 58.9152 50.4228L59.1993 49.464L59.4833 48.5052C59.0037 48.3631 58.7359 48.1945 58.5944 48.0529L57.8873 48.76ZM59.1993 49.464L58.9483 50.432C59.6289 50.6084 60.4716 50.6975 61.4485 50.7197L61.4713 49.72L61.494 48.7203C60.5936 48.6998 59.9216 48.6182 59.4502 48.496L59.1993 49.464ZM61.4713 49.72H60.4713V51H61.4713H62.4713V49.72H61.4713ZM61.4713 51V50H48.0633V51V52H61.4713V51ZM48.0633 51H49.0633V49.72H48.0633H47.0633V51H48.0633ZM48.0633 49.72L48.0855 50.7198C49.0818 50.6976 49.9362 50.6088 50.6182 50.432L50.3673 49.464L50.1163 48.496C49.6463 48.6178 48.9647 48.6997 48.041 48.7202L48.0633 49.72ZM50.3673 49.464L50.6513 50.4228C51.3237 50.2236 51.9306 49.9229 52.3864 49.4671L51.6793 48.76L50.9721 48.0529C50.8306 48.1945 50.5628 48.3631 50.0832 48.5052L50.3673 49.464ZM51.6793 48.76L52.3864 49.4671C52.8667 48.9868 53.1555 48.3876 53.2725 47.7153L52.2873 47.544L51.302 47.3727C51.2483 47.6817 51.1318 47.8932 50.9721 48.0529L51.6793 48.76ZM52.2873 47.544L53.2644 47.7564C53.3906 47.1762 53.4473 46.5145 53.4473 45.784H52.4473H51.4473C51.4473 46.4189 51.3973 46.9305 51.3101 47.3316L52.2873 47.544ZM52.4473 45.784H53.4473V29.016H52.4473H51.4473V45.784H52.4473ZM52.4473 29.016H53.4473C53.4473 28.6757 53.3705 28.3101 53.1513 27.9813L52.3193 28.536L51.4872 29.0907C51.4647 29.057 51.4537 29.0273 51.449 29.0097C51.4447 28.9935 51.4473 28.9935 51.4473 29.016H52.4473ZM52.3193 28.536L53.2137 28.0888C52.957 27.5754 52.4604 27.3721 52.1344 27.2832L51.8713 28.248L51.6081 29.2128C51.6608 29.2271 51.6546 29.2324 51.6185 29.2092C51.5781 29.1832 51.4904 29.1144 51.4248 28.9832L52.3193 28.536ZM51.8713 28.248L52.213 27.3082C51.8369 27.1714 51.3769 27.1121 50.8948 27.0891L50.8473 28.088L50.7997 29.0869C51.2136 29.1066 51.4363 29.1539 51.5295 29.1878L51.8713 28.248ZM50.8473 28.088L50.9468 27.093C50.4729 27.0456 49.8703 27.024 49.1513 27.024V28.024V29.024C49.8402 29.024 50.3683 29.0451 50.7477 29.083L50.8473 28.088ZM49.1513 28.024V27.024C48.3463 27.024 47.57 27.0687 46.8229 27.1593L46.9433 28.152L47.0636 29.1447C47.7245 29.0646 48.4202 29.024 49.1513 29.024V28.024ZM46.9433 28.152L46.8527 27.1561C45.9963 27.234 45.2118 27.498 44.5249 27.9651L45.0873 28.792L45.6496 29.6189C46.0293 29.3607 46.4822 29.198 47.0338 29.1479L46.9433 28.152ZM45.0873 28.792L44.5482 27.9497C43.8189 28.4165 43.2708 29.1153 42.8704 29.9662L43.7753 30.392L44.6801 30.8178C44.9623 30.218 45.2889 29.8502 45.6263 29.6343L45.0873 28.792ZM43.7753 30.392L42.8649 29.9782C42.4621 30.8644 42.2856 32.0262 42.2634 33.3836L43.2633 33.4L44.2631 33.4164C44.2835 32.1711 44.4484 31.3276 44.6856 30.8058L43.7753 30.392ZM43.2633 33.4V32.4H42.0153V33.4V34.4H43.2633V33.4ZM42.0153 33.4L43.0142 33.4454L43.3342 26.4054L42.3353 26.36L41.3363 26.3146L41.0163 33.3546L42.0153 33.4ZM42.3353 26.36V27.36H67.3913V26.36V25.36H42.3353V26.36ZM67.3913 26.36L66.3923 26.4054L66.7123 33.4454L67.7113 33.4L68.7102 33.3546L68.3902 26.3146L67.3913 26.36ZM89.412 38.488L89.9667 39.3201L89.9735 39.3155L89.412 38.488ZM78.884 40.28V39.28H77.884V40.28H78.884ZM79.044 47.896L78.065 48.1L78.0668 48.1084L79.044 47.896ZM79.716 49.048L80.3466 48.2719L80.3466 48.2719L79.716 49.048ZM81.124 49.592L81.2654 48.6021L81.2654 48.6021L81.124 49.592ZM83.524 49.72H84.524V48.72H83.524V49.72ZM83.524 51V52H84.524V51H83.524ZM70.82 51H69.82V52H70.82V51ZM70.82 49.72L70.7897 48.7205L69.82 48.7498V49.72H70.82ZM72.548 49.528L72.3164 48.5552L72.3164 48.5552L72.548 49.528ZM73.572 48.984L74.3092 49.6597L74.3092 49.6597L73.572 48.984ZM74.052 47.896L75.0359 48.0749L75.0359 48.0749L74.052 47.896ZM74.052 29.496L73.0612 29.6311L73.0647 29.6572L73.0697 29.6831L74.052 29.496ZM73.636 28.408L72.8434 29.0177L72.8553 29.0332L72.8678 29.0482L73.636 28.408ZM72.708 27.864L72.4404 28.8275L72.4709 28.836L72.502 28.8425L72.708 27.864ZM71.172 27.64H70.172V28.5756L71.1055 28.6378L71.172 27.64ZM71.172 26.36V25.36H70.172V26.36H71.172ZM89.604 28.088L89.0348 28.9102L89.0348 28.9102L89.604 28.088ZM78.884 38.36H77.884V39.36H78.884V38.36ZM85.508 37.112L84.8531 36.3563L84.8531 36.3563L85.508 37.112ZM85.732 29.464L86.4654 28.7842L86.4654 28.7842L85.732 29.464ZM92.1 33.208H91.1C91.1 35.2057 90.3481 36.6443 88.8505 37.6605L89.412 38.488L89.9735 39.3155C92.0599 37.8997 93.1 35.8183 93.1 33.208H92.1ZM89.412 38.488L88.8573 37.6559C87.2998 38.6943 84.9259 39.28 81.604 39.28V40.28V41.28C85.1088 41.28 87.9402 40.6711 89.9667 39.32L89.412 38.488ZM81.604 40.28V39.28H78.884V40.28V41.28H81.604V40.28ZM78.884 40.28H77.884V45.912H78.884H79.884V40.28H78.884ZM78.884 45.912H77.884C77.884 46.7582 77.939 47.4949 78.065 48.1L79.044 47.896L80.023 47.692C79.9357 47.2731 79.884 46.6871 79.884 45.912H78.884ZM79.044 47.896L78.0668 48.1084C78.2145 48.7878 78.5433 49.3837 79.0854 49.8241L79.716 49.048L80.3466 48.2719C80.206 48.1577 80.0868 47.9855 80.0212 47.6836L79.044 47.896ZM79.716 49.048L79.0854 49.8241C79.6104 50.2506 80.2699 50.4801 80.9826 50.5819L81.124 49.592L81.2654 48.6021C80.7834 48.5332 80.5043 48.4 80.3466 48.2719L79.716 49.048ZM81.124 49.592L80.9826 50.5819C81.6472 50.6769 82.5006 50.72 83.524 50.72V49.72V48.72C82.5421 48.72 81.7954 48.6778 81.2654 48.6021L81.124 49.592ZM83.524 49.72H82.524V51H83.524H84.524V49.72H83.524ZM83.524 51V50H70.82V51V52H83.524V51ZM70.82 51H71.82V49.72H70.82H69.82V51H70.82ZM70.82 49.72L70.8503 50.7195C71.5905 50.6971 72.2407 50.6291 72.7796 50.5008L72.548 49.528L72.3164 48.5552C71.9593 48.6402 71.4575 48.7002 70.7897 48.7205L70.82 49.72ZM72.548 49.528L72.7796 50.5008C73.3597 50.3627 73.9018 50.1041 74.3092 49.6597L73.572 48.984L72.8348 48.3083C72.7729 48.3759 72.6323 48.48 72.3164 48.5552L72.548 49.528ZM73.572 48.984L74.3092 49.6597C74.7105 49.2219 74.929 48.6629 75.0359 48.0749L74.052 47.896L73.0681 47.7171C73.0044 48.0677 72.9028 48.2341 72.8348 48.3083L73.572 48.984ZM74.052 47.896L75.0359 48.0749C75.1362 47.5232 75.18 46.8491 75.18 46.072H74.18H73.18C73.18 46.7882 73.1385 47.3301 73.0681 47.7171L74.052 47.896ZM74.18 46.072H75.18V31.288H74.18H73.18V46.072H74.18ZM74.18 31.288H75.18C75.18 30.5128 75.1364 29.8449 75.0343 29.3089L74.052 29.496L73.0697 29.6831C73.1382 30.0431 73.18 30.5699 73.18 31.288H74.18ZM74.052 29.496L75.0428 29.3609C74.9636 28.7802 74.7781 28.2165 74.4042 27.7678L73.636 28.408L72.8678 29.0482C72.9205 29.1115 73.0124 29.2731 73.0612 29.6311L74.052 29.496ZM73.636 28.408L74.4286 27.7983C74.0442 27.2985 73.5075 27.0104 72.914 26.8854L72.708 27.864L72.502 28.8425C72.7191 28.8883 72.8012 28.9628 72.8434 29.0177L73.636 28.408ZM72.708 27.864L72.9756 26.9005C72.4986 26.768 71.9108 26.687 71.2385 26.6422L71.172 27.64L71.1055 28.6378C71.7132 28.6783 72.1494 28.7467 72.4404 28.8275L72.708 27.864ZM71.172 27.64H72.172V26.36H71.172H70.172V27.64H71.172ZM71.172 26.36V27.36H82.244V26.36V25.36H71.172V26.36ZM82.244 26.36V27.36C85.3956 27.36 87.6113 27.9247 89.0348 28.9102L89.604 28.088L90.1732 27.2658C88.2687 25.9473 85.5777 25.36 82.244 25.36V26.36ZM89.604 28.088L89.0348 28.9102C90.3941 29.8512 91.1 31.2299 91.1 33.208H92.1H93.1C93.1 30.6634 92.1419 28.6288 90.1732 27.2658L89.604 28.088ZM78.884 38.36V39.36H80.964V38.36V37.36H78.884V38.36ZM80.964 38.36V39.36C83.1323 39.36 84.9369 38.9302 86.1629 37.8677L85.508 37.112L84.8531 36.3563C84.1591 36.9578 82.9343 37.36 80.964 37.36V38.36ZM85.508 37.112L86.1629 37.8677C87.4207 36.7776 87.948 35.1347 87.948 33.176H86.948H85.948C85.948 34.8013 85.5153 35.7824 84.8531 36.3563L85.508 37.112ZM86.948 33.176H87.948C87.948 31.4117 87.499 29.8994 86.4654 28.7842L85.732 29.464L84.9986 30.1438C85.5863 30.7779 85.948 31.7403 85.948 33.176H86.948ZM85.732 29.464L86.4654 28.7842C85.3938 27.628 83.8037 27.152 81.924 27.152V28.152V29.152C83.5003 29.152 84.4488 29.5506 84.9986 30.1438L85.732 29.464ZM81.924 28.152V27.152H79.46V28.152V29.152H81.924V28.152ZM79.46 28.152V27.152C79.1277 27.152 78.6925 27.2294 78.3414 27.561C77.9796 27.9027 77.884 28.3455 77.884 28.696H78.884H79.884C79.884 28.6839 79.8844 28.8546 79.7146 29.015C79.5555 29.1653 79.4084 29.152 79.46 29.152V28.152ZM78.884 28.696H77.884V38.36H78.884H79.884V28.696H78.884Z" fill="white"/>
</g>
<defs>
<filter id="filter0_g_2166_1139" x="14.8692" y="13.5132" width="90.1823" height="52.5708" filterUnits="userSpaceOnUse" color-interpolation-filters="sRGB">
<feFlood flood-opacity="0" result="BackgroundImageFix"/>
<feBlend mode="normal" in="SourceGraphic" in2="BackgroundImageFix" result="shape"/>
<feTurbulence type="fractalNoise" baseFrequency="0.039999999105930328 0.039999999105930328" numOctaves="3" seed="9323" />
<feDisplacementMap in="shape" scale="2" xChannelSelector="R" yChannelSelector="G" result="displacedImage" width="100%" height="100%" />
<feMerge result="effect1_texture_2166_1139">
<feMergeNode in="displacedImage"/>
</feMerge>
</filter>
<filter id="filter1_d_2166_1139" x="16.624" y="25.3601" width="80.476" height="42.96" filterUnits="userSpaceOnUse" color-interpolation-filters="sRGB">
<feFlood flood-opacity="0" result="BackgroundImageFix"/>
<feColorMatrix in="SourceAlpha" type="matrix" values="0 0 0 0 0 0 0 0 0 0 0 0 0 0 0 0 0 0 127 0" result="hardAlpha"/>
<feOffset dy="4"/>
<feGaussianBlur stdDeviation="2"/>
<feComposite in2="hardAlpha" operator="out"/>
<feColorMatrix type="matrix" values="0 0 0 0 0 0 0 0 0 0 0 0 0 0 0 0 0 0 0.25 0"/>
<feBlend mode="normal" in2="BackgroundImageFix" result="effect1_dropShadow_2166_1139"/>
<feBlend mode="normal" in="SourceGraphic" in2="effect1_dropShadow_2166_1139" result="shape"/>
</filter>
<linearGradient id="paint0_linear_2166_1139" x1="38.25" y1="21" x2="38.25" y2="39" gradientUnits="userSpaceOnUse">
<stop stop-color="#5E5E5E"/>
<stop offset="1"/>
</linearGradient>
<linearGradient id="paint1_linear_2166_1139" x1="47.75" y1="28" x2="47.75" y2="58" gradientUnits="userSpaceOnUse">
<stop stop-color="#5E5E5E"/>
<stop offset="1"/>
</linearGradient>
<linearGradient id="paint2_linear_2166_1139" x1="60.75" y1="28" x2="60.75" y2="65" gradientUnits="userSpaceOnUse">
<stop stop-color="#5E5E5E"/>
<stop offset="1"/>
</linearGradient>
<linearGradient id="paint3_linear_2166_1139" x1="77.75" y1="28" x2="77.75" y2="52" gradientUnits="userSpaceOnUse">
<stop stop-color="#5E5E5E"/>
<stop offset="1"/>
</linearGradient>
<linearGradient id="paint4_linear_2166_1139" x1="82.25" y1="15" x2="82.25" y2="30.5" gradientUnits="userSpaceOnUse">
<stop stop-color="#5E5E5E"/>
<stop offset="1"/>
</linearGradient>
</defs>
</svg>
