<svg width="55" height="55" viewBox="0 0 55 55" fill="none" xmlns="http://www.w3.org/2000/svg">
<path d="M54.6674 27.857L53.8058 3.89862C53.749 2.31746 52.4739 1.05225 50.8924 1.00763L27.125 0.336987C24.4123 0.260446 23.0001 3.53823 24.919 5.45711L29.7981 10.3362C30.9697 11.5078 30.9697 13.4073 29.7981 14.5788L1.12131 43.2559C-0.0502566 44.4275 -0.0502507 46.3269 1.12132 47.4985L7.29343 53.6706C8.465 54.8422 10.3645 54.8422 11.5361 53.6706L40.2129 24.9936C41.3844 23.822 43.2839 23.822 44.4555 24.9936L49.548 30.0861C51.4749 32.013 54.7653 30.5802 54.6674 27.857Z" fill="url(#paint0_linear_2142_971)"/>
<defs>
<linearGradient id="paint0_linear_2142_971" x1="53.5" y1="1" x2="0.5" y2="54.5" gradientUnits="userSpaceOnUse">
<stop offset="0.3" stop-color="white"/>
<stop offset="0.9" stop-color="white" stop-opacity="0"/>
</linearGradient>
</defs>
</svg>
